<svg xmlns="http://www.w3.org/2000/svg" width="502" height="502" viewBox="0 0 502 502">
<g>
<path d="M 225.50 487.93 C193.37,484.24 167.22,476.57 140.50,463.02 C117.40,451.31 101.17,439.75 81.93,421.30 C42.74,383.71 17.74,334.30 10.45,280.00 C8.55,265.84 8.59,234.21 10.53,219.40 C15.04,185.01 28.66,148.31 47.23,120.50 C75.26,78.52 115.97,45.46 161.50,27.71 C186.77,17.86 217.88,11.61 238.58,12.21 L 248.41 12.50 L 248.54 18.00 C248.61,21.02 248.45,35.48 248.18,50.12 L 247.69 76.73 L 236.60 77.44 C162.43,82.13 97.23,135.98 79.14,207.50 C71.70,236.89 72.39,270.10 81.05,299.16 C93.96,342.53 125.10,380.79 165.00,402.31 C187.52,414.46 209.58,420.60 241.26,423.53 L 248.01 424.16 L 247.76 360.33 L 247.50 296.50 L 207.75 296.24 L 168.00 295.98 L 168.00 263.99 C168.00,234.17 168.12,232.00 169.75,232.05 C170.71,232.08 203.23,231.97 242.00,231.80 L 312.50 231.50 L 312.75 360.25 L 313.01 489.00 L 272.75 488.87 C250.61,488.80 229.35,488.37 225.50,487.93 ZM 350.50 435.37 C348.85,435.19 343.11,434.53 337.75,433.91 L 328.00 432.77 L 328.00 399.77 L 328.00 366.77 L 330.25 367.38 C349.93,372.75 374.56,371.87 394.21,365.10 C409.35,359.89 425.46,349.43 437.34,337.10 C441.11,333.19 444.34,330.00 444.54,330.00 C444.73,330.00 456.84,337.90 471.45,347.55 C495.02,363.12 497.90,365.31 497.02,366.97 C495.25,370.26 474.82,391.02 467.26,397.20 C446.93,413.81 420.06,426.53 393.81,431.97 C378.46,435.15 360.98,436.53 350.50,435.37 ZM 186.00 215.56 C186.00,211.18 190.55,191.61 193.62,182.80 C203.00,155.85 216.20,134.65 235.66,115.26 C259.72,91.31 289.81,75.15 324.00,67.82 C333.12,65.87 337.52,65.57 357.50,65.54 C377.63,65.50 381.92,65.79 391.83,67.80 C428.98,75.32 459.43,92.47 486.51,121.09 C490.36,125.17 494.54,129.94 495.79,131.71 L 498.07 134.91 L 471.37 152.52 L 444.67 170.13 L 436.59 162.19 C432.14,157.83 425.94,152.41 422.82,150.15 C383.76,121.88 330.19,122.46 292.00,151.57 C274.16,165.17 260.27,185.51 254.05,207.17 L 251.37 216.50 L 218.69 216.76 C190.55,216.99 186.00,216.82 186.00,215.56 Z" fill="rgba(0,0,0,1)"/>
</g>
</svg>